<svg xmlns="http://www.w3.org/2000/svg" viewBox="0 0 101.35 29.22"><defs><style>.cls-1{fill:#fff;}</style></defs><g id="Layer_2" data-name="Layer 2"><g id="Layer_1-2" data-name="Layer 1"><path class="cls-1" d="M20.07,11.79c0,4.73-3.59,8.24-8.63,8.24h-10v8.89H0V2H10.68C16.17,2,20.07,6.07,20.07,11.79ZM17.78,13.2c0-3.13-2.6-5.42-6.18-5.42H1.45V18.54h10.3C15.26,18.54,17.78,16.25,17.78,13.2Z"/><path class="cls-1" d="M22.28,19.68c0-5.64,3.85-9.57,9-9.57s9,3.93,9,9.57-3.82,9.54-9,9.54S22.28,25.33,22.28,19.68Zm16.86,0c0-2.59-3.32-4.31-7.82-4.31s-7.82,1.72-7.82,4.31,3.32,4.2,7.82,4.2S39.14,22.2,39.14,19.68Z"/><path class="cls-1" d="M55.5,11.94l-.07,5.49A7,7,0,0,0,51,15.91c-2.9,0-5.23,1.83-5.38,4.27v8.74H44.1V10.41h1.52L45.32,15h.3a6.11,6.11,0,0,1,5.84-4.88C53.14,10.11,54.89,10.87,55.5,11.94Z"/><path class="cls-1" d="M67.78,24.11l-.07,4.65a8.17,8.17,0,0,1-3,.46c-3.05,0-5.34-2.82-5.34-6.56v-6.6H57.33V10.41h2.06V3.55h1.53v6.86h6.71v5.65H60.92V22.2c0,1.3,1.71,2.29,4,2.29A8.92,8.92,0,0,0,67.78,24.11Z"/><path class="cls-1" d="M73.66,8.7v2.78H81v5.57H73.66V28.92H72.13V17.05H69.62V11.48h2.51v-4C72.13,3.2,74.73,0,78.24,0a4.86,4.86,0,0,1,3.43,1.22l-.08,5a6.71,6.71,0,0,0-3.66-.92C75.49,5.34,73.66,6.71,73.66,8.7Z"/><path class="cls-1" d="M83.27,19.68c0-5.64,3.85-9.57,9-9.57s9,3.93,9,9.57-3.81,9.54-9,9.54S83.27,25.33,83.27,19.68Zm16.86,0c0-2.59-3.32-4.31-7.82-4.31s-7.82,1.72-7.82,4.31,3.32,4.2,7.82,4.2S100.13,22.2,100.13,19.68Z"/></g></g></svg>