<svg xmlns="http://www.w3.org/2000/svg" viewBox="0 0 50.41 50.41"><defs><style>.cls-1{fill:#fff;}</style></defs><g id="Layer_2" data-name="Layer 2"><g id="Layer_1-2" data-name="Layer 1"><circle class="cls-1" cx="25.2" cy="25.2" r="25.2"/><path d="M26,22.05a5,5,0,0,1-5.26,5h-6.1v5.42h-.88V16.07h6.51A5.64,5.64,0,0,1,26,22.05Zm-1.4.86C24.57,21,23,19.6,20.8,19.6H14.61v6.56h6.28A3.38,3.38,0,0,0,24.57,22.91Z"/><path d="M27.31,26.86a5.52,5.52,0,1,1,11,0c0,3.45-2.33,5.82-5.49,5.82A5.48,5.48,0,0,1,27.31,26.86Zm10.29,0c0-1.58-2-2.63-4.77-2.63s-4.77,1.05-4.77,2.63,2,2.56,4.77,2.56S37.6,28.4,37.6,26.86Z"/></g></g></svg>